<?xml version="1.0" encoding="UTF-8"?>
<svg version="1.1" viewBox="0 0 2000 2000" width="1280" height="1280" xmlns="http://www.w3.org/2000/svg">
<path transform="translate(331,774)" d="m0 0h22l12 3 15 8 10 8 9 12 7 15 3 17-1 15-3 12-8 15-7 9h72l6 3 1 18v13h3l27-16 28-16 24-14 6-3h5l5 3 1 2v222l-2 3-8 2-16-8-52-30-21-12v24l-1 7-3 3-6 1h-258l-5-2-1-2-1-37v-131l1-26 2-3 3-1h23l-4-8-2-10 1-13 7-14 7-8 8-5 10-3h14l12 4 1-7 5-13 6-10 9-10 7-6 16-8zm4 19-11 3-10 6-11 11-6 13-2 8v13l4 13 6 10 9 9 14 7 8 2h12l11-3 10-5 10-9 7-12 3-12v-14l-4-13-7-11-9-8-12-6-9-2zm-81 53-8 3-7 8-2 5v11l5 8 6 5 5 2h9l8-4 6-7 2-6v-9l-4-8-7-6-6-2zm292 55-21 12-26 15-17 10-13 8v86l72 42 6 4h2v-177zm-332 6-2 2 1 162h237v-163z" fill="#A29BCE"/>
<path transform="translate(891,916)" d="m0 0h77l17 2 15 5 11 6 7 6 6 8 5 10 2 8v18l-4 13-7 11-5 6-8 6-9 2v2l5 2 12 9 6 10 5 13 3 15 1 10v16l-4 8-5 3h-8l-5-3-3-5-2-28-3-14-5-10-4-5-8-5-10-3-65-1v52l-1 15-4 5-4 2h-7l-5-3-3-3-1-3v-171l6-8zm17 23-1 3v57l1 9h26l35-1 16-4 10-6 7-7 3-6 1-4v-15l-3-9-6-7-8-5-15-4-8-1z" fill="#FBFBFC"/>
<path transform="translate(1244,915)" d="m0 0h8l5 3 4 5 1 113 2 14 4 10 7 9 8 6 10 5 12 3h18l12-3 12-6 9-8 7-13 2-9 1-24 1-97 3-5 5-3h8l7 6 1 2v121l-4 17-7 13-9 11-10 8-16 8-13 4-13 2h-12l-17-3-15-6-14-9-10-10-8-13-4-10-2-9-1-15v-106l3-7z" fill="#FCFBFD"/>
<path transform="translate(1439,914)" d="m0 0 9 3 8 9 33 42 14 18 3 4h2l12-16 9-11 13-17 12-15 9-12 5-4 5-1 8 4 3 4v8l-7 10-10 12-7 9-10 12-10 13-10 12-8 10v3l9 11 39 48 12 15 3 6-1 7-4 5-4 2h-8l-7-6-10-13-13-16-22-28-10-13-5 5-9 11-13 17-22 28-8 10-6 5h-7l-6-4-2-3v-8l6-9 10-12 11-14 11-13 8-10 13-16 4-5-2-4-13-16-11-14-11-13-10-13-10-12-6-10v-6l6-7z" fill="#FCFCFD"/>
<path transform="translate(607,915)" d="m0 0h9l5 4 6 12 43 108 14 35 1 5 2-1 11-28 43-107 8-20 5-7 2-1h9l5 3 3 4v9l-8 20-16 39-17 41-18 44-8 19-6 8-7 3-8 1-9-2-7-6-9-19-15-37-17-41-16-39-11-27-2-7 1-7 5-5z" fill="#FCFCFD"/>
<path transform="translate(1059,916)" d="m0 0h140l6 3 3 5-1 9-5 5-2 1h-58v158l-6 7-3 1h-7l-6-4-2-3-1-9v-149l-58-1-6-5-2-5 1-6 5-6z" fill="#FBFBFC"/>
<path transform="translate(321,922)" d="m0 0h22l11 3 14 7 11 9 9 11 7 15 3 11 1 7v10l-4 17-8 15-11 12-10 8-11 5-10 3-18 1-14-2-15-6-11-8-7-7-9-14-5-13-2-16 2-18 5-12 7-12 8-9 11-8 12-6zm6 19-16 4-11 7-9 10-5 11-2 8-1 11 3 13 6 12 9 10 11 6 8 3 6 1h11l12-3 11-6 10-10 6-10 3-12v-11l-2-10-5-12-9-10-10-7-11-4-7-1z" fill="#A29BCE"/>
<path transform="translate(814,915)" d="m0 0h8l6 4 3 6v170l-4 7-5 3h-7l-6-3-3-6v-173l6-7z" fill="#FAFAFC"/>
<path transform="translate(1648,1048)" d="m0 0h17l8 3 8 8 4 10v14l-4 10-7 7-6 3-5 1h-13l-8-3-8-7-5-10-1-3v-10l3-8 4-6 8-7z" fill="#A29BCE"/>
<path transform="translate(307,956)" d="m0 0h8l14 7 17 10 13 8 4 5v7l-7 6-26 15-14 8h-8l-4-4-1-3v-53l3-5zm14 27v12l6-1 5-3-1-4-6-4z" fill="#A29BCE"/>
</svg>
